<?xml version="1.0" encoding="UTF-8" standalone="no"?>
<!-- Created with Inkscape (http://www.inkscape.org/) -->

<svg
   xmlns:dc="http://purl.org/dc/elements/1.1/"
   xmlns:cc="http://creativecommons.org/ns#"
   xmlns:rdf="http://www.w3.org/1999/02/22-rdf-syntax-ns#"
   xmlns:svg="http://www.w3.org/2000/svg"
   xmlns="http://www.w3.org/2000/svg"
   version="1.1"
   width="60"
   height="400"
   id="svg2">
  <defs
     id="defs4" />
  <metadata
     id="metadata7">
    <rdf:RDF>
      <cc:Work
         rdf:about="">
        <dc:format>image/svg+xml</dc:format>
        <dc:type
           rdf:resource="http://purl.org/dc/dcmitype/StillImage" />
        <dc:title></dc:title>
      </cc:Work>
    </rdf:RDF>
  </metadata>
  <g
     transform="translate(0,-652.36217)"
     id="layer1">
    <rect
       width="28"
       height="18"
       x="16"
       y="672.36218"
       id="rect3234"
       style="color:#000000;fill:#ffffff;fill-opacity:1;fill-rule:nonzero;stroke:none;stroke-width:2;marker:none;visibility:visible;display:inline;overflow:visible;enable-background:accumulate" />
    <rect
       width="28"
       height="6"
       x="16"
       y="672.36218"
       id="rect3228"
       style="fill:#cd2a3e;fill-opacity:1;stroke:none" />
    <rect
       width="28"
       height="6"
       x="16"
       y="684.36218"
       id="rect3236"
       style="color:#000000;fill:#436f4d;fill-opacity:1;fill-rule:nonzero;stroke:none;marker:none;visibility:visible;display:inline;overflow:visible;enable-background:accumulate" />
    <g
       id="text3084"
       style="font-size:17.76565742px;font-style:normal;font-variant:normal;font-weight:bold;font-stretch:normal;text-align:start;line-height:125%;letter-spacing:0px;word-spacing:0px;writing-mode:lr-tb;text-anchor:start;fill:#ffffff;fill-opacity:1;stroke:none;font-family:DejaVu Sans Mono;-inkscape-font-specification:DejaVu Sans Mono Bold">
      <path
         d="m 26.716133,701.58177 5.03129,0 0,7.7638 3.157568,0 0,1.95179 -8.86548,0 0,-1.95179 3.166243,0 0,-5.81201 -2.489621,0 z m 2.489621,-4.72768 2.541669,0 0,2.96673 -2.541669,0 z"
         id="path3044" />
    </g>
    <g
       transform="matrix(0.1,0,0,0.1,28,634.126)"
       id="g4210">
      <rect
         width="280"
         height="180"
         x="-119.99999"
         y="182.36218"
         id="rect4107"
         style="fill:#003399;fill-opacity:1;stroke:none" />
      <path
         d="m -120,182.36219 0,10.1562 99.875,63.8438 -99.875,0 0,32 99.84375,0 -99.84375,63.8437 0,10.1563 14.3125,0 L 4,292.23719 l 0,70.125 32,0 0,-70.125 109.6875,70.125 14.3125,0 0,-10.1563 -99.875,-63.8437 99.875,0 0,-32 -99.84375,0 99.84375,-63.8438 0,-10.1562 -14.3125,0 -109.6875,70.125 0,-70.125 -32,0 0,70.125 -109.6875,-70.125 -14.3125,0 z"
         id="rect4117"
         style="fill:#ffffff;fill-opacity:1;stroke:none" />
      <path
         d="m -120,182.36219 0,4.875 119.0625,76.125 -119.0625,0 0,18 119.03125,0 -119.03125,76.0937 0,4.9063 6.09375,0 L 11,282.48719 l 0,79.875 18,0 0,-79.875 124.90625,79.875 6.09375,0 0,-4.9063 -119.03125,-76.0937 119.03125,0 0,-18 -119.0625,0 119.0625,-76.125 0,-4.875 -6.09375,0 L 29,262.23719 l 0,-79.875 -18,0 0,79.875 -124.90625,-79.875 -6.09375,0 z"
         id="rect4123"
         style="fill:#cc0000;fill-opacity:1;stroke:none" />
    </g>
    <text
       x="18.409588"
       y="756.53284"
       id="text3864"
       xml:space="preserve"
       style="font-size:38.62473679px;font-style:normal;font-variant:normal;font-weight:bold;font-stretch:normal;text-align:start;line-height:125%;letter-spacing:0px;word-spacing:0px;writing-mode:lr-tb;text-anchor:start;fill:#ffffff;fill-opacity:1;stroke:none;font-family:DejaVu Sans Mono;-inkscape-font-specification:DejaVu Sans Mono Bold"><tspan
         x="18.409588"
         y="756.53284"
         id="tspan3866"
         style="font-size:38.62473679px;font-style:normal;font-variant:normal;font-weight:normal;font-stretch:normal;text-align:start;line-height:125%;writing-mode:lr-tb;text-anchor:start;fill:#ffffff;font-family:DejaVu Sans Mono;-inkscape-font-specification:DejaVu Sans Mono Bold">&quot;</tspan></text>
    <rect
       width="4"
       height="16"
       x="-542.48419"
       y="574.91058"
       transform="matrix(0.70710678,-0.70710678,0.70710678,0.70710678,0,0)"
       id="rect3021"
       style="color:#000000;fill:#ffffff;fill-opacity:1;fill-rule:nonzero;stroke:none;stroke-width:2;marker:none;visibility:visible;display:inline;overflow:visible;enable-background:accumulate" />
    <rect
       width="4"
       height="16"
       x="580.91058"
       y="532.48419"
       transform="matrix(0.70710678,0.70710678,-0.70710678,0.70710678,0,0)"
       id="rect3023"
       style="color:#000000;fill:#ffffff;fill-opacity:1;fill-rule:nonzero;stroke:none;stroke-width:2;marker:none;visibility:visible;display:inline;overflow:visible;enable-background:accumulate" />
    <g
       id="g3043">
      <path
         d="m 31,104 0,2 3.59375,0 -8.625,8.59375 1.4375,1.4375 L 36,107.40625 36,111 l 2,0 0,-5 0,-2 -2,0 -5,0 z"
         transform="translate(0,652.36217)"
         id="rect3033"
         style="color:#000000;fill:#ffffff;fill-opacity:1;fill-rule:nonzero;stroke:none;stroke-width:2;marker:none;visibility:visible;display:inline;overflow:visible;enable-background:accumulate" />
      <path
         d="m 24,756.36217 c -1.108,0 -2,0.892 -2,2 l 0,12 c 0,1.108 0.892,2 2,2 l 12,0 c 1.108,0 2,-0.892 2,-2 l 0,-4 -2,0 0,3.5 c 0,0.277 -0.223,0.5 -0.5,0.5 l -11,0 c -0.277,0 -0.5,-0.223 -0.5,-0.5 l 0,-11 c 0,-0.277 0.223,-0.5 0.5,-0.5 l 3.5,0 0,-2 -4,0 z"
         id="path3035"
         style="color:#000000;fill:#ffffff;fill-opacity:1;fill-rule:nonzero;stroke:none;stroke-width:2;marker:none;visibility:visible;display:inline;overflow:visible;enable-background:accumulate" />
    </g>
    <g
       id="g3039">
      <g
         id="g3067">
        <path
           d="m 25,818.11217 c -1.82851,1.46613 -3,3.72394 -3,6.25 0,4.41828 3.58172,8 8,8 4.41828,0 8,-3.58172 8,-8 0,-2.11454 -0.81641,-4.03836 -2.15625,-5.46875 l -1.5625,1.25 C 35.34879,821.22665 36,822.72115 36,824.36217 c 0,3.31371 -2.68629,6 -6,6 -3.31371,0 -6,-2.68629 -6,-6 0,-1.22671 0.36818,-2.36221 1,-3.3125 l 0,-2.9375 z"
           id="path3853"
           style="color:#000000;fill:#ffffff;fill-opacity:1;fill-rule:nonzero;stroke:none;stroke-width:2;marker:none;visibility:visible;display:inline;overflow:visible;enable-background:accumulate" />
        <path
           d="m 27,813.36217 0,10 6.25,-5 z"
           id="path3855"
           style="fill:#ffffff;stroke:none" />
      </g>
    </g>
    <path
       d="m 23,863.36217 0,16 14,0 0,-16 -14,0 z m 2,2 10,0 0,12 -10,0 0,-12 z m 2,2 0,2 6,0 0,-2 -6,0 z m 0,3 0,2 6,0 0,-2 -6,0 z m 0,3 0,2 6,0 0,-2 -6,0 z"
       id="path3112"
       style="opacity:0.7;color:#000000;fill:#ffffff;fill-opacity:1;fill-rule:nonzero;stroke:none;stroke-width:2;marker:none;visibility:visible;display:inline;overflow:visible;enable-background:accumulate" />
    <path
       d="m 34.0625,882.36217 -10.40625,18 2.28125,0 10.40625,-18 -2.28125,0 z m -11.0625,1 0,16 0.0625,0 1.9375,-3.34375 0,-10.65625 6.15625,0 1.15625,-2 -9.3125,0 z m 13.9375,0 -1.9375,3.34375 0,10.65625 -6.15625,0 -1.15625,2 9.3125,0 0,-16 -0.0625,0 z m -9.9375,4 0,2 1.84375,0 1.15625,-2 -3,0 z m 0,3 0,2 0.125,0 1.125,-2 -1.25,0 z m 5.875,0 -1.125,2 1.25,0 0,-2 -0.125,0 z m -1.71875,3 -1.15625,2 3,0 0,-2 -1.84375,0 z"
       id="path3121"
       style="opacity:0.7;color:#000000;fill:#ffffff;fill-opacity:1;fill-rule:nonzero;stroke:none;stroke-width:2;marker:none;visibility:visible;display:inline;overflow:visible;enable-background:accumulate" />
    <path
       d="m 23,858.36217 0,-8 7,-8 7,8 0,8 z"
       id="path3895"
       style="opacity:0.7;fill:#ffffff;fill-opacity:1;stroke:none" />
    <path
       d="m 23,923.36217 0,16 14,0 0,-16 -14,0 z m 2,2 10,0 0,12 -10,0 0,-12 z m 2,2 0,2 6,0 0,-2 -6,0 z m 0,3 0,2 6,0 0,-2 -6,0 z m 0,3 0,2 6,0 0,-2 -6,0 z"
       id="path3067"
       style="color:#000000;fill:#777777;fill-opacity:1;fill-rule:nonzero;stroke:none;stroke-width:2;marker:none;visibility:visible;display:inline;overflow:visible;enable-background:accumulate" />
    <path
       d="m 34.0625,942.36217 -10.40625,18.00003 2.28125,0 10.40625,-18.00003 -2.28125,0 z m -11.0625,1 0,16.00003 0.0625,0 1.9375,-3.3438 0,-10.65623 6.15625,0 1.15625,-2 -9.3125,0 z m 13.9375,0 -1.9375,3.34375 0,10.65628 -6.15625,0 -1.15625,2 9.3125,0 0,-16.00003 -0.0625,0 z m -9.9375,4 0,2.00003 1.84375,0 1.15625,-2.00003 -3,0 z m 0,3.00003 0,2 0.125,0 1.125,-2 -1.25,0 z m 5.875,0 -1.125,2 1.25,0 0,-2 -0.125,0 z m -1.71875,3 -1.15625,2 3,0 0,-2 -1.84375,0 z"
       id="path3069"
       style="color:#000000;fill:#777777;fill-opacity:1;fill-rule:nonzero;stroke:none;stroke-width:2;marker:none;visibility:visible;display:inline;overflow:visible;enable-background:accumulate" />
    <path
       d="m 23,918.36217 0,-8 7,-8 7,8 0,8 z"
       id="path3071"
       style="fill:#777777;fill-opacity:1;stroke:none" />
  </g>
</svg>
