<?xml version="1.0" encoding="UTF-8" standalone="no"?>
<!-- Created with Inkscape (http://www.inkscape.org/) -->

<svg
   xmlns:dc="http://purl.org/dc/elements/1.1/"
   xmlns:cc="http://creativecommons.org/ns#"
   xmlns:rdf="http://www.w3.org/1999/02/22-rdf-syntax-ns#"
   xmlns:svg="http://www.w3.org/2000/svg"
   xmlns="http://www.w3.org/2000/svg"
   xmlns:sodipodi="http://sodipodi.sourceforge.net/DTD/sodipodi-0.dtd"
   xmlns:inkscape="http://www.inkscape.org/namespaces/inkscape"
   width="280"
   height="180"
   id="svg3137"
   version="1.1"
   inkscape:version="0.48.4 r9939"
   sodipodi:docname="flags-editable.svg">
  <defs
     id="defs3139">
    <linearGradient
       id="linearGradient3784">
      <stop
         style="stop-color:#5b3980;stop-opacity:1;"
         offset="0"
         id="stop3786" />
      <stop
         style="stop-color:#5c2323;stop-opacity:0;"
         offset="1"
         id="stop3788" />
    </linearGradient>
  </defs>
  <sodipodi:namedview
     id="base"
     pagecolor="#ffffff"
     bordercolor="#666666"
     borderopacity="1.0"
     inkscape:pageopacity="0.0"
     inkscape:pageshadow="2"
     inkscape:zoom="0.24748737"
     inkscape:cx="-500.78023"
     inkscape:cy="-371.12113"
     inkscape:document-units="px"
     inkscape:current-layer="layer1"
     showgrid="false"
     inkscape:window-width="1212"
     inkscape:window-height="749"
     inkscape:window-x="144"
     inkscape:window-y="-4"
     inkscape:window-maximized="1"
     fit-margin-top="0"
     fit-margin-left="0"
     fit-margin-right="0"
     fit-margin-bottom="0"
     inkscape:showpageshadow="false"
     borderlayer="true" />
  <metadata
     id="metadata3142">
    <rdf:RDF>
      <cc:Work
         rdf:about="">
        <dc:format>image/svg+xml</dc:format>
        <dc:type
           rdf:resource="http://purl.org/dc/dcmitype/StillImage" />
        <dc:title></dc:title>
      </cc:Work>
    </rdf:RDF>
  </metadata>
  <g
     inkscape:label="Layer 1"
     inkscape:groupmode="layer"
     id="layer1"
     transform="translate(-2654.6809,580.04431)">
    <rect
       style="color:#000000;fill:#80b3ff;fill-opacity:1;fill-rule:nonzero;stroke:none;stroke-width:2;marker:none;visibility:visible;display:inline;overflow:visible;enable-background:accumulate"
       id="rect4125"
       width="670.74127"
       height="325.26913"
       x="2459.3103"
       y="-148.61273" />
    <rect
       style="color:#000000;fill:#ffffff;fill-opacity:1;fill-rule:nonzero;stroke:none;stroke-width:2;marker:none;visibility:visible;display:inline;overflow:visible;enable-background:accumulate"
       id="rect3234"
       width="280"
       height="180"
       x="2654.6809"
       y="-580.04431" />
    <rect
       y="-580.04431"
       x="2654.6809"
       height="60"
       width="280"
       id="rect3228"
       style="fill:#b40000;fill-opacity:1;stroke:none" />
    <rect
       style="color:#000000;fill:#217b21;fill-opacity:1;fill-rule:nonzero;stroke:none;marker:none;visibility:visible;display:inline;overflow:visible;enable-background:accumulate"
       id="rect3236"
       width="280"
       height="60"
       x="2654.6809"
       y="-460.04431" />
    <rect
       y="-80.044312"
       x="2654.6809"
       height="180"
       width="280"
       id="rect4107"
       style="fill:#003399;fill-opacity:1;stroke:none" />
    <path
       style="fill:#ffffff;fill-opacity:1;stroke:none"
       d="M 0 500 L 0 510.15625 L 99.875 574 L 0 574 L 0 606 L 99.84375 606 L 0 669.84375 L 0 680 L 14.3125 680 L 124 609.875 L 124 680 L 156 680 L 156 609.875 L 265.6875 680 L 280 680 L 280 669.84375 L 180.125 606 L 280 606 L 280 574 L 180.15625 574 L 280 510.15625 L 280 500 L 265.6875 500 L 156 570.125 L 156 500 L 124 500 L 124 570.125 L 14.3125 500 L 0 500 z "
       transform="translate(2654.6809,-580.04431)"
       id="rect4117" />
    <path
       style="fill:#cc0000;fill-opacity:1;stroke:none"
       d="M 0 500 L 0 504.875 L 119.0625 581 L 0 581 L 0 599 L 119.03125 599 L 0 675.09375 L 0 680 L 6.09375 680 L 131 600.125 L 131 680 L 149 680 L 149 600.125 L 273.90625 680 L 280 680 L 280 675.09375 L 160.96875 599 L 280 599 L 280 581 L 160.9375 581 L 280 504.875 L 280 500 L 273.90625 500 L 149 579.875 L 149 500 L 131 500 L 131 579.875 L 6.09375 500 L 0 500 z "
       transform="translate(2654.6809,-580.04431)"
       id="rect4123" />
    <rect
       y="411.38727"
       x="2459.3103"
       height="325.26913"
       width="670.74127"
       id="rect4141"
       style="color:#000000;fill:#80b3ff;fill-opacity:1;fill-rule:nonzero;stroke:none;stroke-width:2;marker:none;visibility:visible;display:inline;overflow:visible;enable-background:accumulate" />
    <rect
       style="fill:#003399;fill-opacity:1;stroke:none"
       id="rect4143"
       width="280"
       height="180"
       x="2654.6809"
       y="479.95569" />
    <rect
       y="-2020.8925"
       x="-1923.7838"
       height="16.479498"
       width="411.81024"
       id="rect4145"
       style="fill:#ffffff;fill-opacity:1;stroke:none"
       transform="matrix(-0.84255934,0.53860353,-0.6693987,-0.74290334,0,0)"
       inkscape:transform-center-x="574.66614"
       inkscape:transform-center-y="406.10439" />
    <rect
       inkscape:transform-center-y="406.10439"
       inkscape:transform-center-x="574.66614"
       transform="matrix(-0.84255934,-0.53860353,-0.6693987,0.74290334,0,0)"
       style="fill:#ffffff;fill-opacity:1;stroke:none"
       id="rect4147"
       width="411.81024"
       height="16.479498"
       x="-2697.2864"
       y="-1047.2942" />
    <rect
       y="-2016.3981"
       x="-1893.1302"
       height="7.4907422"
       width="350.50449"
       id="rect4149"
       style="fill:#cc0000;fill-opacity:1;stroke:none"
       transform="matrix(-0.84255934,0.53860353,-0.6693987,-0.74290334,0,0)"
       inkscape:transform-center-x="566.67915"
       inkscape:transform-center-y="400.16252" />
    <rect
       inkscape:transform-center-y="400.16252"
       inkscape:transform-center-x="566.67915"
       transform="matrix(-0.84255934,-0.53860353,-0.6693987,0.74290334,0,0)"
       style="fill:#cc0000;fill-opacity:1;stroke:none"
       id="rect4151"
       width="350.50449"
       height="7.4907422"
       x="-2666.6333"
       y="-1042.7997" />
    <rect
       style="fill:#ffffff;fill-opacity:1;stroke:none"
       id="rect4153"
       width="320"
       height="32"
       x="2634.6809"
       y="553.95569" />
    <rect
       style="fill:#ffffff;fill-opacity:1;stroke:none"
       id="rect4155"
       width="210"
       height="32"
       x="464.95569"
       y="-2810.6809"
       transform="matrix(0,1,-1,0,0,0)" />
    <rect
       style="fill:#cc0000;fill-opacity:1;stroke:none"
       id="rect4157"
       width="300"
       height="18"
       x="2644.6809"
       y="560.95569" />
    <rect
       style="fill:#cc0000;fill-opacity:1;stroke:none"
       id="rect4159"
       width="200"
       height="18"
       x="469.95569"
       y="-2803.6809"
       transform="matrix(0,1,-1,0,0,0)" />
  </g>
</svg>
